<svg width="200" height="200" viewBox="0 0 200 200" fill="none" xmlns="http://www.w3.org/2000/svg">
<path d="M59.7941 104.101V117.71C59.7941 117.931 59.7069 118.142 59.5516 118.298C59.3964 118.454 59.1859 118.542 58.9663 118.542H54.691C54.4715 118.542 54.261 118.454 54.1058 118.298C53.9506 118.142 53.8633 117.931 53.8633 117.71V95.5739C53.8633 95.3533 53.9505 95.1417 54.1057 94.9857C54.2609 94.8297 54.4715 94.7421 54.691 94.7421H58.6473C58.8669 94.7421 59.0774 94.8297 59.2327 94.9857C59.3879 95.1417 59.4751 95.3533 59.4751 95.5739V98.6912C59.4751 98.6912 60.8894 94.2444 65.0866 94.2444C65.0866 94.2444 69.2382 93.7401 70.9262 98.3703C70.9262 98.3703 72.3405 94.2444 76.6289 94.2444C76.6289 94.2444 83.0065 93.8634 83.0065 100.495L83.055 104.147V117.756C83.055 117.977 82.9678 118.188 82.8126 118.344C82.6573 118.5 82.4468 118.588 82.2273 118.588H77.9516C77.7321 118.588 77.5216 118.5 77.3664 118.344C77.2111 118.188 77.1239 117.977 77.1238 117.756L77.0848 102.909C77.2063 99.5469 74.4996 99.7915 74.4996 99.7915C71.0933 99.8527 71.4211 104.147 71.4211 104.147V117.756C71.4211 117.977 71.3339 118.188 71.1786 118.344C71.0234 118.5 70.8129 118.588 70.5933 118.588H66.318C66.0985 118.588 65.888 118.5 65.7328 118.344C65.5776 118.188 65.4903 117.977 65.4902 117.756V103.245C65.4902 103.245 65.7403 99.7607 62.6986 99.7607C62.6989 99.7607 59.6879 99.3635 59.7941 104.101ZM170 104.06V117.669C170 117.89 169.913 118.101 169.757 118.257C169.602 118.413 169.392 118.501 169.172 118.501L164.726 118.587C164.506 118.587 164.296 118.5 164.141 118.344C163.985 118.188 163.898 117.976 163.898 117.756V103.245C163.898 103.245 164.148 99.7607 161.107 99.7607C161.107 99.7607 158.202 99.6169 158.202 105.08V117.71C158.202 117.93 158.114 118.142 157.959 118.298C157.804 118.454 157.594 118.541 157.374 118.542H153.098C152.879 118.541 152.668 118.454 152.513 118.298C152.358 118.142 152.271 117.93 152.271 117.71V95.5739C152.271 95.3533 152.358 95.1418 152.513 94.9858C152.668 94.8299 152.879 94.7422 153.098 94.7421H157.055C157.274 94.7421 157.485 94.8297 157.64 94.9857C157.795 95.1417 157.882 95.3533 157.882 95.5739V98.6912C157.882 98.6912 159.297 94.2444 163.494 94.2444C163.494 94.2444 167.99 93.559 169.504 98.2842C169.505 98.2838 170 99.2586 170 104.06ZM139.13 94.1527C133.663 94.1527 129.231 98.7829 129.231 106.576C129.231 113.438 132.652 119 139.13 119C145.244 119 149.03 113.438 149.03 106.576C149.03 98.9205 144.598 94.1527 139.13 94.1527ZM142.581 106.851C142.581 109.785 142.216 111.344 142.216 111.344C141.697 114.446 139.456 114.45 139.126 114.434C138.769 114.448 136.51 114.416 136.042 111.344C136.042 111.344 135.677 109.785 135.677 106.851V106.363C135.677 103.429 136.042 101.87 136.042 101.87C136.51 98.7983 138.77 98.7661 139.126 98.78C139.456 98.7635 141.697 98.7675 142.216 101.87C142.216 101.87 142.581 103.429 142.581 106.363V106.851ZM126.749 98.6604V95.4844C126.749 95.2638 126.662 95.0523 126.506 94.8963C126.351 94.7404 126.141 94.6527 125.921 94.6526H111.789C111.57 94.6526 111.359 94.7402 111.204 94.8962C111.049 95.0522 110.962 95.2638 110.962 95.4844V98.6359C110.962 98.8564 111.049 99.068 111.204 99.2239C111.359 99.3799 111.57 99.4676 111.789 99.4677H119.161L110.436 112.187C110.436 112.187 110.092 112.702 110.103 113.272V117.141C110.103 117.141 110.046 118.467 111.543 117.697C111.543 117.697 114.203 116.083 118.662 116.083C118.662 116.083 123.065 116.028 126.001 117.836C126.001 117.836 127.219 118.393 127.219 117.169V113.801C127.219 113.801 127.33 112.91 126.167 112.354C126.167 112.354 122.788 110.489 118.357 110.795L126.749 98.6604ZM50.5635 114.583L49.2252 112.536C48.7992 111.772 48.8299 110.916 48.8299 110.916V101.472C49.0124 93.3121 40.0095 94.0152 40.0095 94.0152C32.0064 94.0152 30.8242 100.274 30.8242 100.274C30.4906 101.532 31.4607 101.563 31.4607 101.563L35.3714 101.961C35.3714 101.961 36.0383 102.114 36.281 101.317C36.281 101.317 36.7959 98.5864 39.676 98.5864C42.8096 98.5864 42.7771 101.289 42.7771 101.289V103.551C36.5215 103.762 33.6225 105.507 33.6225 105.507C29.76 107.707 30.003 112.078 30.003 112.078C30.003 119.198 36.7551 118.893 36.7551 118.893C41.0738 118.893 43.6286 115.714 43.6286 115.714C44.3889 117.06 45.7882 118.342 45.7882 118.342C46.4882 119.105 47.2178 118.465 47.2178 118.465L50.381 115.745C51.0803 115.225 50.5635 114.583 50.5635 114.583ZM38.8628 114.495C36.8313 114.495 36.0762 112.467 36.4135 110.473C36.7511 108.479 38.5044 106.913 42.7775 106.959V108.171C42.929 113.466 40.5537 114.495 38.8628 114.495ZM107.378 114.583L106.04 112.536C105.614 111.772 105.644 110.916 105.644 110.916V101.472C105.827 93.3121 96.8237 94.0152 96.8237 94.0152C88.8205 94.0152 87.6384 100.274 87.6384 100.274C87.3048 101.532 88.2749 101.563 88.2749 101.563L92.1856 101.961C92.1856 101.961 92.8524 102.114 93.0951 101.317C93.0951 101.317 93.6101 98.5864 96.4901 98.5864C99.6238 98.5864 99.5913 101.289 99.5913 101.289V103.551C93.336 103.762 90.4366 105.507 90.4366 105.507C86.5741 107.707 86.8172 112.078 86.8172 112.078C86.8172 119.198 93.5692 118.893 93.5692 118.893C97.8879 118.893 100.443 115.714 100.443 115.714C101.203 117.06 102.602 118.342 102.602 118.342C103.302 119.105 104.032 118.465 104.032 118.465L107.195 115.745C107.894 115.225 107.378 114.583 107.378 114.583ZM95.6769 114.495C93.6455 114.495 92.8904 112.467 93.2276 110.473C93.5652 108.479 95.3185 106.913 99.5913 106.959V108.171C99.7431 113.466 97.3682 114.495 95.6769 114.495Z" fill="#B8BCC2"/>
<path d="M118.265 132.061C118.265 132.061 117.908 132.682 118.347 132.82C118.347 132.82 118.842 133.014 119.459 132.441C119.459 132.441 123.963 128.506 124.072 121.343C124.072 121.343 124.105 120.449 123.746 120.204C123.746 120.204 122.335 118.956 117.261 119.336C117.261 119.336 112.839 119.634 110.424 121.778C110.424 121.778 110.207 121.967 110.207 122.211C110.207 122.211 110.155 122.738 111.482 122.51C111.482 122.51 115.905 121.885 118.536 122.211C118.536 122.211 119.894 122.374 120.273 122.836C120.273 122.836 120.897 123.351 120.571 125.06C120.571 125.061 119.676 129.402 118.265 132.061Z" fill="#B8BCC2"/>
<path d="M117.374 125.189C117.374 125.189 118.034 126.044 116.968 126.782C116.968 126.782 105.584 135.889 86.4674 135.889C86.4674 135.889 66.7897 136.86 50.3589 121.931C50.3589 121.931 49.7829 121.425 50.1404 120.955C50.1404 120.955 50.4601 120.522 51.2878 120.993C51.2878 120.993 66.7442 130.624 87.0437 130.624C87.0437 130.624 101.153 131.17 115.627 124.98C115.627 124.98 116.78 124.383 117.374 125.189Z" fill="#B8BCC2"/>
</svg>
