<svg width="200" height="200" viewBox="0 0 200 200" fill="none" xmlns="http://www.w3.org/2000/svg">
<path d="M72.7749 96.0822C74.3772 96.0822 75.6761 94.7524 75.6761 93.1122C75.6761 91.4717 74.3772 90.1422 72.7749 90.1422C71.1725 90.1422 69.8737 91.4717 69.8737 93.1122C69.8737 94.7524 71.1725 96.0822 72.7749 96.0822ZM168.522 106.23C168.08 105.912 167.74 105.859 167.457 106.476C162.584 117.277 154.373 111.887 155.189 112.362C157.01 111.509 161.8 107.577 161.076 102.148C160.637 98.8303 157.854 97.3586 154.901 97.8855C149.745 98.8054 147.849 104.496 148.814 109.535C148.983 110.4 149.285 111.114 149.587 111.813C143.761 116.661 141.447 107.472 141.185 106.374C141.174 106.315 145.683 102.469 146.937 93.3039C148.251 83.6982 145.257 81.9491 142.196 82.0037C136.53 82.1047 134.999 94.2195 137.056 104.316C136.884 104.362 136.082 104.817 134.794 104.868C133.867 101.883 129.906 99.266 128.869 100.274C126.275 102.797 129.499 107.728 131.767 108.114C130.404 116.703 121.883 114.576 123.469 103.816C126.244 98.542 128.355 90.7005 127.978 85.9666C127.845 84.2906 126.634 82.0451 123.896 82.1565C118.629 82.3697 118.056 94.4879 118.674 103.089C118.643 102.877 118.35 104.134 116.192 104.759C115.681 101.858 111.119 98.9475 110.045 100.347C108.034 102.966 111.518 107.637 113.169 107.962C111.806 116.551 103.286 114.424 104.872 103.663C107.647 98.3901 109.757 90.5485 109.38 85.8146C109.247 84.1384 108.036 81.8929 105.298 82.004C100.031 82.2175 99.4585 94.3357 100.076 102.936C100.045 102.721 99.7451 104.019 97.4988 104.634C97.4236 100.871 92.8444 99.1462 91.7443 100.347C89.7838 102.487 92.1933 106.878 94.4224 107.962C93.0598 116.551 84.539 114.424 86.1252 103.663C88.9 98.3901 91.0104 90.5485 90.6336 85.8146C90.5005 84.1384 89.2897 81.8929 86.5512 82.004C81.2848 82.2175 80.861 94.9449 81.4784 103.545C79.7437 111.152 73.9263 120.651 74.6821 101.622C74.7568 100.287 74.8382 99.7806 74.188 99.2808C73.7007 98.8924 72.5928 99.0793 71.9871 99.0947C71.251 99.1249 71.0664 99.5657 70.9038 100.232C70.5248 101.953 70.4567 103.62 70.4025 105.896C70.367 106.961 70.2836 107.457 69.883 108.909C69.483 110.36 67.2006 113.013 65.951 112.569C64.2174 111.959 64.7861 106.951 65.111 103.509C65.3817 100.79 64.5149 99.5685 62.294 99.1244C60.9938 98.8471 60.2039 98.8896 58.8498 98.4528C57.5693 98.0397 57.2797 95.5608 54.5486 96.3869C53.0549 96.8392 54.0152 100.078 53.6561 102.479C51.8911 114.289 48.2186 114.613 46.5148 108.876C54.1883 89.6424 48.7346 82.0597 45.5422 82.0597C42.2172 82.0597 38.4164 84.4036 40.0258 99.4012C39.2433 99.1675 39.0026 99.0415 38.146 99.0415C33.3009 99.0415 30 103.05 30 107.995C30 112.94 33.3012 116.949 38.1462 116.949C41.0064 116.949 43.0145 115.617 44.5354 113.558C45.5277 115.012 46.736 116.971 48.9456 116.883C55.5319 116.62 57.4474 102.793 57.6735 102.022C58.3776 102.133 59.0437 102.343 59.6939 102.455C60.7773 102.621 60.856 103.06 60.8314 104.175C60.5443 113.579 62.2399 116.872 66.0861 116.872C68.229 116.872 70.1389 114.717 71.4547 113.176C72.4375 115.252 74.0034 116.808 76.1043 116.871C81.1948 117.001 83.1439 108.697 82.9662 109.79C82.8267 110.647 84.6177 116.825 89.8584 116.847C96.3501 116.875 97.5568 109.569 97.7006 108.345C97.7186 108.102 97.7266 108.127 97.7006 108.345L97.6957 108.419C99.7566 108.027 100.82 106.896 100.82 106.896C100.82 106.896 102.475 116.961 108.605 116.847C114.97 116.729 116.171 110.125 116.328 108.837C116.349 108.531 116.361 108.567 116.328 108.837C116.327 108.85 116.327 108.862 116.326 108.875C118.774 107.963 119.418 107.049 119.418 107.049C119.418 107.049 120.733 116.913 127.203 116.999C132.968 117.077 135.104 111.034 135.117 108.505C136.089 108.516 137.888 107.915 137.846 107.881C137.846 107.881 139.958 116.506 145.855 116.949C148.624 117.157 150.701 115.354 151.885 114.532C154.667 116.838 163.933 119.784 169.783 109.632C170.609 108.175 168.833 106.454 168.522 106.23ZM37.9125 113.6C35.0857 113.6 33.273 110.925 33.273 108.041C33.273 105.156 34.9369 102.481 37.7637 102.481C39.0357 102.481 39.7434 102.625 40.7341 103.506C40.9137 104.231 41.4228 105.902 41.6706 106.661C42.0025 107.677 42.3974 108.541 42.7955 109.482C42.2267 111.895 40.3622 113.6 37.9125 113.6ZM44.8009 103.591C44.6833 103.4 44.7079 103.517 44.5764 103.336C44.0582 101.894 43.0596 98.6738 42.944 95.0165C42.8133 90.8793 43.487 86.0298 45.4733 86.0298C46.8191 86.0298 48.2495 95.858 44.8006 103.591H44.8009ZM84.6027 99.2805C84.2839 96.8254 84.2672 85.8807 86.8345 86.1821C88.252 86.7697 85.9357 97.0975 84.6027 99.2805ZM103.349 99.2805C103.03 96.8254 103.014 85.8807 105.581 86.1821C106.999 86.7697 104.682 97.0975 103.349 99.2805ZM121.947 99.4331C121.628 96.9777 121.612 86.0329 124.179 86.3343C125.596 86.922 123.28 97.25 121.947 99.4331ZM142.479 85.5415C144.826 85.2924 144.729 95.7827 140.018 102.406C139.41 100.012 138.479 86.3634 142.479 85.5412V85.5415ZM152.345 108.114C151.591 104.217 153.539 101.657 155.547 101.377C156.249 101.262 157.266 101.727 157.469 102.597C157.802 104.237 157.42 106.669 152.926 109.755C152.932 109.781 152.513 108.983 152.345 108.114H152.345Z" fill="#B8BCC2"/>
</svg>
