<svg width="200" height="200" viewBox="0 0 200 200" fill="none" xmlns="http://www.w3.org/2000/svg">
<path d="M50.9948 79C39.3999 79 30 88.402 30 99.9996C30 111.599 39.3999 121 50.9948 121C62.5901 121 71.9895 111.599 71.9895 99.9996C71.9895 88.4027 62.5906 79.001 50.9945 79.001L50.9948 79ZM60.6228 109.287C60.2458 109.906 59.44 110.1 58.8235 109.723C53.8934 106.709 47.6879 106.028 40.3799 107.698C39.6757 107.86 38.9737 107.418 38.8133 106.714C38.6521 106.009 39.0915 105.307 39.7975 105.147C47.795 103.318 54.655 104.105 60.1888 107.487C60.8056 107.866 61.0011 108.671 60.6226 109.288L60.6228 109.287ZM63.1925 103.57C62.7177 104.341 61.7104 104.583 60.941 104.109C55.2988 100.64 46.6954 99.6355 40.0204 101.662C39.1547 101.924 38.2404 101.436 37.9777 100.571C37.7169 99.7055 38.2051 98.7927 39.0692 98.5294C46.6939 96.2153 56.1725 97.3362 62.6533 101.32C63.4229 101.794 63.6661 102.802 63.1923 103.571L63.1925 103.57ZM63.4131 97.6161C56.6456 93.5961 45.4827 93.2264 39.0223 95.1877C37.9849 95.5024 36.8878 94.9166 36.5735 93.8789C36.2591 92.8408 36.8442 91.7442 37.8824 91.4287C45.2985 89.1768 57.6269 89.6119 65.4173 94.2378C66.3504 94.7917 66.6565 95.9971 66.1034 96.9292C65.5519 97.8626 64.3435 98.1703 63.4134 97.6161H63.4131ZM87.1198 98.3864C83.4948 97.5218 82.8495 96.915 82.8495 95.6398C82.8495 94.4351 83.9835 93.6244 85.6697 93.6244C87.3043 93.6244 88.9251 94.24 90.6244 95.5074C90.6758 95.5458 90.7402 95.5611 90.8036 95.551C90.8671 95.5415 90.9232 95.5067 90.9603 95.4542L92.7303 92.9586C92.803 92.8558 92.7832 92.7141 92.6852 92.6356C90.6627 91.0124 88.3853 90.2233 85.7234 90.2233C81.8094 90.2233 79.0754 92.5727 79.0754 95.9342C79.0754 99.539 81.4338 100.815 85.5093 101.801C88.978 102.6 89.5634 103.269 89.5634 104.466C89.5634 105.793 88.3796 106.617 86.4745 106.617C84.3586 106.617 82.6327 105.904 80.702 104.232C80.6541 104.19 80.5884 104.172 80.5278 104.175C80.4638 104.18 80.4054 104.21 80.3648 104.259L78.3802 106.621C78.297 106.719 78.3075 106.866 78.4038 106.951C80.6501 108.956 83.4129 110.016 86.3943 110.016C90.6119 110.016 93.3373 107.711 93.3373 104.143C93.3448 101.132 91.5423 99.464 87.1273 98.3897L87.1198 98.3864ZM102.879 94.8105C101.051 94.8105 99.5515 95.5307 98.315 97.0065V95.3454C98.315 95.2143 98.2087 95.1074 98.0778 95.1074H94.832C94.7008 95.1074 94.5948 95.2143 94.5948 95.3454V113.802C94.5948 113.933 94.7008 114.04 94.832 114.04H98.0778C98.2087 114.04 98.315 113.933 98.315 113.802V107.976C99.5517 109.364 101.051 110.043 102.879 110.043C106.276 110.043 109.715 107.427 109.715 102.428C109.72 97.4265 106.28 94.8103 102.883 94.8103L102.879 94.8105ZM105.94 102.428C105.94 104.974 104.372 106.75 102.127 106.75C99.9077 106.75 98.2335 104.893 98.2335 102.428C98.2335 99.9625 99.9077 98.1048 102.127 98.1048C104.336 98.1046 105.94 99.9221 105.94 102.427L105.94 102.428ZM118.528 94.8105C114.154 94.8105 110.726 98.1798 110.726 102.482C110.726 106.737 114.13 110.071 118.474 110.071C122.865 110.071 126.302 106.713 126.302 102.428C126.302 98.1567 122.888 94.811 118.528 94.811L118.528 94.8105ZM118.528 106.776C116.201 106.776 114.447 104.906 114.447 102.426C114.447 99.9364 116.141 98.1296 118.474 98.1296C120.816 98.1296 122.582 99.9996 122.582 102.481C122.582 104.97 120.877 106.776 118.528 106.776H118.528ZM135.644 95.1074H132.072V91.4548C132.072 91.3239 131.966 91.2171 131.835 91.2171H128.59C128.458 91.2171 128.352 91.3239 128.352 91.4548V95.1074H126.791C126.66 95.1074 126.555 95.2143 126.555 95.3454V98.1357C126.555 98.2666 126.66 98.3737 126.791 98.3737H128.352V105.593C128.352 108.511 129.804 109.99 132.667 109.99C133.831 109.99 134.797 109.75 135.707 109.234C135.781 109.192 135.827 109.112 135.827 109.028V106.371C135.827 106.289 135.785 106.211 135.714 106.168C135.644 106.124 135.556 106.122 135.483 106.157C134.858 106.472 134.254 106.617 133.578 106.617C132.536 106.617 132.072 106.144 132.072 105.084V98.3749H135.644C135.775 98.3749 135.88 98.2681 135.88 98.137V95.3469C135.885 95.2158 135.78 95.109 135.647 95.109L135.644 95.1074ZM148.089 95.1217V94.6731C148.089 93.3533 148.595 92.7648 149.729 92.7648C150.406 92.7648 150.949 92.8992 151.558 93.1023C151.633 93.1259 151.711 93.1141 151.772 93.0692C151.835 93.0243 151.87 92.9523 151.87 92.8761V90.1403C151.87 90.0357 151.803 89.9432 151.702 89.9123C151.059 89.721 150.236 89.5246 149.004 89.5246C146.007 89.5246 144.422 91.2133 144.422 94.4063V95.0934H142.862C142.732 95.0934 142.624 95.2002 142.624 95.3311V98.1357C142.624 98.2666 142.732 98.3736 142.862 98.3736H144.422V109.51C144.422 109.641 144.528 109.748 144.659 109.748H147.904C148.036 109.748 148.142 109.641 148.142 109.51V98.3744H151.173L155.815 109.508C155.288 110.678 154.77 110.91 154.062 110.91C153.491 110.91 152.888 110.74 152.273 110.403C152.215 110.371 152.146 110.366 152.084 110.385C152.022 110.407 151.97 110.453 151.943 110.513L150.843 112.927C150.791 113.041 150.836 113.175 150.945 113.234C152.094 113.856 153.131 114.122 154.412 114.122C156.809 114.122 158.133 113.005 159.301 110.001L164.932 95.4467C164.961 95.3735 164.952 95.2907 164.907 95.2258C164.863 95.1613 164.791 95.1225 164.712 95.1225H161.333C161.232 95.1225 161.141 95.1869 161.108 95.282L157.647 105.172L153.855 95.2754C153.821 95.1834 153.732 95.1225 153.634 95.1225H148.088L148.089 95.1217ZM140.873 95.1074H137.627C137.496 95.1074 137.39 95.2143 137.39 95.3454V109.51C137.39 109.641 137.496 109.748 137.627 109.748H140.873C141.004 109.748 141.111 109.641 141.111 109.51V95.3464C141.111 95.3151 141.105 95.2841 141.093 95.2552C141.081 95.2263 141.064 95.2 141.042 95.1779C141.02 95.1558 140.993 95.1382 140.964 95.1263C140.935 95.1144 140.904 95.1083 140.873 95.1084L140.873 95.1074ZM139.269 88.658C137.983 88.658 136.94 89.6992 136.94 90.9853C136.94 92.2723 137.983 93.3147 139.269 93.3147C140.554 93.3147 141.597 92.2723 141.597 90.9853C141.597 89.6994 140.554 88.658 139.27 88.658H139.269ZM167.704 99.6616C166.419 99.6616 165.42 98.6297 165.42 97.3766C165.42 96.1235 166.432 95.0798 167.716 95.0798C169 95.0798 170 96.1115 170 97.3636C170 98.6167 168.987 99.6616 167.704 99.6616H167.704ZM167.716 95.307C166.546 95.307 165.661 96.2374 165.661 97.3766C165.661 98.5153 166.54 99.4331 167.705 99.4331C168.874 99.4331 169.761 98.5036 169.761 97.3636C169.761 96.2248 168.881 95.307 167.717 95.307H167.716ZM168.223 97.5985L168.869 98.5033H168.324L167.742 97.6733H167.242V98.5033H166.786V96.105H167.855C168.413 96.105 168.779 96.3901 168.779 96.8701C168.781 97.2633 168.553 97.5035 168.225 97.5985H168.223V97.5985ZM167.837 96.5165H167.242V97.2751H167.837C168.134 97.2751 168.311 97.1299 168.311 96.8954C168.311 96.6487 168.133 96.5165 167.837 96.5165H167.837V96.5165Z" fill="#B8BCC2"/>
</svg>
