<svg width="200" height="200" viewBox="0 0 200 200" fill="none" xmlns="http://www.w3.org/2000/svg">
<path d="M47.4787 77H48.7408C53.1222 77.0927 57.4321 78.8082 60.5277 81.8449C59.3847 82.9808 58.2179 84.0703 57.0988 85.2062C55.3605 83.6762 53.265 82.494 50.9791 82.0767C47.5978 81.3813 43.9545 82.0072 41.1209 83.8849C38.0253 85.8553 35.9299 89.1934 35.4775 92.7634C34.9774 96.2869 36.0013 99.996 38.3587 102.731C40.6209 105.397 44.0736 107.066 47.6454 107.182C50.9791 107.368 54.4556 106.371 56.8845 104.099C58.7894 102.5 59.6705 100.066 59.9562 97.701C56.0034 97.701 52.0506 97.7242 48.0978 97.701V92.9256H64.7424C65.5997 98.0487 64.3614 103.821 60.361 107.484C57.6941 110.08 54.0032 111.61 50.2409 111.911C46.5977 112.259 42.8354 111.587 39.5969 109.871C35.7156 107.854 32.62 104.447 31.096 100.436C29.6673 96.7506 29.6435 92.5779 30.977 88.8689C32.1914 85.4844 34.525 82.494 37.5253 80.4077C40.4065 78.3445 43.9069 77.2086 47.4787 77Z" fill="#B8BCC2"/>
<path d="M141 78H146V111.994C144.341 111.994 142.659 112.018 141 111.97C141.023 100.663 141 89.3313 141 78Z" fill="#B8BCC2"/>
<path d="M75.2588 89.2099C78.3753 88.6183 81.7515 89.2809 84.3249 91.1505C86.6622 92.8071 88.2913 95.4104 88.7871 98.2503C89.4245 101.54 88.6218 105.137 86.497 107.74C84.2068 110.651 80.4529 112.213 76.7935 111.977C73.4409 111.787 70.1828 110.107 68.1996 107.362C65.9567 104.332 65.4137 100.167 66.6414 96.6174C67.8691 92.8071 71.3397 89.8962 75.2588 89.2099ZM75.9671 93.7065C74.6922 94.0378 73.5117 94.7714 72.6618 95.8127C70.3717 98.558 70.5133 103.031 73.0396 105.587C74.4797 107.054 76.6518 107.74 78.6586 107.338C80.5238 107.007 82.1528 105.752 83.05 104.096C84.6082 101.28 84.1596 97.3983 81.7751 95.1974C80.2405 93.7775 77.9975 93.1858 75.9671 93.7065Z" fill="#B8BCC2"/>
<path d="M100.258 89.2118C103.826 88.5252 107.724 89.5196 110.394 92.0292C114.742 95.9357 115.214 103.252 111.505 107.75C109.26 110.591 105.622 112.154 102.03 111.988C98.6044 111.893 95.2258 110.189 93.1938 107.371C90.902 104.27 90.4058 100.008 91.7053 96.3856C93.0048 92.6921 96.4071 89.8747 100.258 89.2118ZM100.967 93.7102C99.6913 94.0417 98.5099 94.7756 97.6593 95.7937C95.3911 98.4927 95.4856 102.896 97.9192 105.477C99.3605 107.016 101.605 107.774 103.684 107.348C105.527 106.992 107.181 105.761 108.079 104.104C109.615 101.263 109.166 97.38 106.756 95.1781C105.22 93.7575 102.975 93.1893 100.967 93.7102Z" fill="#B8BCC2"/>
<path d="M121.536 90.5704C124.253 88.8822 127.867 88.4132 130.796 89.867C131.717 90.2656 132.473 90.9455 133.205 91.6255C133.229 90.9924 133.205 90.3359 133.229 89.6794C134.811 89.7028 136.394 89.6794 138 89.7028V110.383C137.976 113.502 137.173 116.808 134.906 119.082C132.426 121.591 128.623 122.364 125.198 121.849C121.536 121.309 118.348 118.66 116.93 115.307C118.348 114.627 119.836 114.088 121.3 113.455C122.127 115.377 123.804 117.019 125.906 117.394C128.008 117.769 130.441 117.253 131.811 115.518C133.276 113.736 133.276 111.298 133.205 109.117C132.118 110.172 130.867 111.11 129.355 111.462C126.072 112.376 122.458 111.251 119.93 109.047C117.379 106.843 115.867 103.443 116.009 100.066C116.08 96.2445 118.253 92.5634 121.536 90.5704ZM126.426 93.5716C124.985 93.8061 123.639 94.6033 122.717 95.7053C120.497 98.3313 120.497 102.528 122.741 105.108C124.017 106.632 126.072 107.476 128.056 107.265C129.922 107.077 131.646 105.905 132.567 104.287C134.126 101.544 133.866 97.8155 131.764 95.4239C130.465 93.9467 128.386 93.2199 126.426 93.5716Z" fill="#B8BCC2"/>
<path d="M152.551 91.8062C155.362 89.1562 159.695 88.257 163.302 89.653C166.721 90.9544 168.899 94.2433 170 97.6269C164.918 99.7564 159.859 101.862 154.776 103.992C155.479 105.34 156.556 106.571 158.008 107.068C160.046 107.801 162.482 107.541 164.192 106.169C164.871 105.648 165.409 104.962 165.925 104.299C167.213 105.175 168.501 106.027 169.789 106.902C167.962 109.67 164.894 111.611 161.592 111.918C157.938 112.368 154.05 110.948 151.685 108.061C147.797 103.518 148.171 95.8996 152.551 91.8062ZM155.057 96.1835C154.261 97.3429 153.933 98.7626 153.956 100.159C157.353 98.7389 160.749 97.3193 164.145 95.8759C163.583 94.5509 162.224 93.7464 160.842 93.5335C158.617 93.1312 156.299 94.3379 155.057 96.1835Z" fill="#B8BCC2"/>
</svg>
