<svg width="200" height="200" viewBox="0 0 200 200" fill="none" xmlns="http://www.w3.org/2000/svg">
<path d="M133 84.6505C133 83.1874 134.225 82 135.735 82H167.265C168.776 82 170 83.1874 170 84.6505V116.35C170 117.814 168.776 119 167.265 119H135.735C134.225 119 133 117.814 133 116.35V84.65V84.6505Z" fill="#006699"/>
<path d="M30 113H45.3332V107.913H35.5499V88.5095H30V113ZM53.0963 113V96.1315H47.5469V113H53.0963ZM50.3221 93.8288C52.2569 93.8288 53.4615 92.5334 53.4615 90.9137C53.4256 89.2586 52.2569 88 50.3589 88C48.4605 88 47.2191 89.2591 47.2191 90.9137C47.2191 92.5334 48.4236 93.8288 50.2857 93.8288H50.3221ZM55.6727 113H61.2221V103.579C61.2221 103.075 61.258 102.571 61.405 102.212C61.8055 101.205 62.7186 100.161 64.2519 100.161C66.2605 100.161 67.064 101.708 67.064 103.975V113H72.6125V103.328C72.6125 98.1461 69.8746 95.7351 66.2231 95.7351C63.2297 95.7351 61.9151 97.4259 61.1848 98.5777H61.2221V96.1315H55.6727C55.7459 97.7145 55.6727 113 55.6727 113ZM80.4415 88.5095H74.8921V113H80.4415V107.531L81.8284 105.767L86.1733 113H93L85.699 102.529L92.0874 95.4049H85.4071C85.4071 95.4049 80.8435 101.778 80.4415 102.534V88.5095Z" fill="black"/>
<path d="M108.085 105.833C108.16 105.415 108.271 104.614 108.271 103.707C108.271 99.5022 106.042 95.2329 100.174 95.2329C93.8973 95.2329 91 99.9875 91 104.3C91 109.633 94.5287 112.964 100.694 112.964C103.146 112.964 105.41 112.618 107.268 111.889L106.525 108.318C105.002 108.802 103.442 109.044 101.511 109.044C98.8744 109.044 96.5721 108.007 96.3861 105.798L108.085 105.832V105.833ZM96.3491 102.175C96.4976 100.786 97.464 98.7382 99.8778 98.7382C102.44 98.7382 103.035 100.925 103.035 102.175H96.3496H96.3491ZM122.206 89.0005V97.1762H122.131C121.314 96.0319 119.606 95.2684 117.341 95.2684C112.995 95.2684 109.17 98.5993 109.206 104.29C109.206 109.565 112.661 113 116.969 113C119.309 113 121.537 112.028 122.652 110.154H122.763L122.986 112.618H128C127.926 111.473 127.851 109.495 127.851 107.552V89H122.205L122.206 89.0005ZM122.206 105.088C122.206 105.504 122.169 105.921 122.094 106.267C121.761 107.76 120.424 108.8 118.789 108.8C116.45 108.8 114.927 106.996 114.927 104.151C114.927 101.48 116.227 99.3279 118.827 99.3279C120.572 99.3279 121.797 100.473 122.132 101.895C122.206 102.208 122.206 102.555 122.206 102.867V105.088V105.088Z" fill="black"/>
<path d="M143.902 113V96.1313H138.329V113H143.903H143.902ZM141.116 93.8287C143.06 93.8287 144.27 92.5333 144.27 90.9146C144.233 89.2591 143.06 88 141.154 88C139.246 88 138 89.2591 138 90.9146C138 92.5333 139.209 93.8287 141.08 93.8287H141.116H141.116ZM146.987 113H152.56V103.581C152.56 103.077 152.597 102.572 152.744 102.213C153.147 101.205 154.064 100.162 155.604 100.162C157.62 100.162 158.427 101.709 158.427 103.977V113H164V103.328C164 98.1469 161.251 95.7359 157.584 95.7359C154.577 95.7359 153.257 97.4262 152.524 98.5775H152.561V96.1318H146.988C147.06 97.7143 146.987 113 146.987 113V113Z" fill="white"/>
</svg>
