<svg width="200" height="200" viewBox="0 0 200 200" fill="none" xmlns="http://www.w3.org/2000/svg">
<path d="M100.71 110.875C100.71 111.368 100.71 111.48 101.038 111.782L102.875 113.619V113.697H94.7316V110.169C93.9118 112.494 91.7441 114.032 89.3316 113.999C85.1453 113.999 82.1065 110.64 82.1065 104.457C82.1065 98.6668 85.3855 94.8028 89.9874 94.8028C92.0274 94.6714 93.9258 95.8754 94.7205 97.8044V90.0208C94.7504 89.8445 94.7314 89.6632 94.6658 89.4972C94.6002 89.3311 94.4904 89.1867 94.3488 89.08L92.5999 87.3552V87.2768L100.71 86.3024V110.875ZM94.7316 109.755V98.1404C94.4423 97.7707 94.073 97.4733 93.6521 97.2714C93.2313 97.0694 92.7704 96.9682 92.3048 96.9756C90.3264 96.9756 88.4135 98.8124 88.4135 104.267C88.4135 109.374 90.064 111.177 92.1191 111.177C92.6343 111.165 93.1395 111.03 93.5935 110.783C94.0474 110.536 94.4373 110.184 94.7312 109.755H94.7316ZM106.11 113.697V98.0172C106.136 97.8451 106.12 97.6693 106.062 97.5052C106.005 97.3411 105.909 97.1938 105.782 97.0764L103.979 95.1724V95.094H112.122V110.998C112.122 111.491 112.122 111.603 112.45 111.905L114.243 113.63V113.708L106.11 113.697ZM105.815 89.3596C105.815 87.5042 107.283 86 109.094 86C110.905 86 112.373 87.5045 112.373 89.36C112.373 91.2154 110.905 92.72 109.094 92.72C107.284 92.72 105.815 91.2154 105.815 89.36V89.3596ZM134.093 110.841C134.093 111.334 134.093 111.48 134.42 111.782L136.257 113.619V113.697H128.07V109.676C127.324 112.219 125.053 113.97 122.463 113.999C118.834 113.999 116.888 111.289 116.888 106.16C116.888 103.684 116.888 100.974 116.964 97.9276C116.994 97.7605 116.979 97.5884 116.922 97.429C116.864 97.2696 116.766 97.1286 116.636 97.0204L114.833 95.1724V95.094H122.911V105.32C122.911 108.68 123.392 110.92 125.446 110.92C125.992 110.884 126.519 110.71 126.981 110.415C127.443 110.119 127.825 109.711 128.092 109.228V98.0284C128.118 97.8563 128.101 97.6805 128.044 97.5164C127.987 97.3523 127.891 97.205 127.764 97.0876L125.949 95.1724V95.094H134.093V110.841ZM161.813 113.697C161.813 113.092 161.922 105.387 161.922 103.617C161.922 100.257 161.408 97.9388 159.102 97.9388C158.528 97.9579 157.967 98.1138 157.463 98.3941C156.96 98.6743 156.529 99.0709 156.206 99.5516C156.437 100.599 156.547 101.67 156.533 102.744C156.533 105.073 156.457 108.041 156.424 111.009C156.394 111.176 156.409 111.348 156.467 111.508C156.524 111.667 156.623 111.808 156.752 111.916L158.589 113.641V113.719H150.369C150.369 113.159 150.478 105.409 150.478 103.64C150.478 100.224 149.964 97.9612 147.691 97.9612C147.137 97.9826 146.598 98.1459 146.124 98.4358C145.65 98.7257 145.256 99.1327 144.98 99.6188V111.043C144.98 111.536 144.98 111.648 145.308 111.95L147.1 113.675V113.753H138.968V98.0732C138.994 97.9011 138.977 97.7253 138.92 97.5612C138.863 97.3971 138.767 97.2498 138.64 97.1324L136.836 95.1724V95.094H144.98V99.0812C145.735 96.4492 148.141 94.6803 150.817 94.7916C153.528 94.7916 155.364 96.3372 156.14 99.2716C157.002 96.5653 159.483 94.7494 162.261 94.7916C165.89 94.7916 167.945 97.5356 167.945 102.721C167.945 105.196 167.869 108.019 167.836 110.987C167.804 111.158 167.823 111.335 167.889 111.496C167.955 111.657 168.065 111.795 168.207 111.894L170 113.619V113.697H161.813ZM59.5127 111.256L61.9285 113.619V113.697H49.6752V113.619L52.1347 111.256C52.2638 111.147 52.3622 111.006 52.4199 110.847C52.4775 110.687 52.4922 110.515 52.4626 110.348V95.2396C52.4626 94.6012 52.4626 93.7388 52.5717 92.9996L44.308 114H44.21L35.6512 94.68C35.4652 94.1984 35.4106 94.1648 35.2902 93.84V106.507C35.1877 107.354 35.3283 108.214 35.6951 108.982L39.1379 113.619V113.697H30V113.619L33.4433 108.971C33.807 108.206 33.9473 107.351 33.8474 106.507V92.5072C33.9038 91.819 33.7008 91.1346 33.2793 90.592L30.8418 87.3552V87.2768H39.5863L46.9098 103.64L53.359 87.2768H61.9174V87.3552L59.5127 90.0992C59.3711 90.2059 59.2613 90.3503 59.1957 90.5164C59.1301 90.6824 59.1112 90.8637 59.141 91.04V110.349C59.1097 110.52 59.1281 110.697 59.1942 110.858C59.2603 111.019 59.371 111.157 59.5131 111.256L59.5127 111.256ZM69.0991 103.684V103.763C69.0991 108.556 71.5148 110.483 74.3457 110.483C76.7095 110.565 78.8976 109.207 79.9203 107.022H79.9969C79.0133 111.76 76.1492 113.999 71.8644 113.999C67.2407 113.999 62.8794 111.144 62.8794 104.524C62.8794 97.5692 67.2518 94.7916 72.0829 94.7916C75.9745 94.7916 80.1171 96.6732 80.1171 102.721V103.684H69.0991ZM69.0991 102.721H74.4879V101.747C74.4879 96.8188 73.4932 95.5084 71.9956 95.5084C70.1811 95.5084 69.0773 97.4684 69.0773 102.721H69.0991Z" fill="#B8BCC2"/>
</svg>
