<svg width="208" height="56" viewBox="0 0 208 56" fill="none" xmlns="http://www.w3.org/2000/svg">
<rect width="56" height="56" rx="28" fill="#A53DFF"/>
<path d="M30.728 27.432C31.624 27.592 32.384 28.064 33.008 28.848C33.632 29.632 33.944 30.52 33.944 31.512C33.944 32.36 33.72 33.128 33.272 33.816C32.84 34.488 32.208 35.024 31.376 35.424C30.544 35.808 29.576 36 28.472 36H21.8V19.32H28.16C29.296 19.32 30.272 19.512 31.088 19.896C31.904 20.28 32.52 20.8 32.936 21.456C33.352 22.096 33.56 22.816 33.56 23.616C33.56 24.576 33.304 25.376 32.792 26.016C32.28 26.656 31.592 27.128 30.728 27.432ZM24.536 26.328H27.92C28.816 26.328 29.512 26.128 30.008 25.728C30.52 25.312 30.776 24.72 30.776 23.952C30.776 23.2 30.52 22.616 30.008 22.2C29.512 21.768 28.816 21.552 27.92 21.552H24.536V26.328ZM28.232 33.768C29.16 33.768 29.888 33.544 30.416 33.096C30.944 32.648 31.208 32.024 31.208 31.224C31.208 30.408 30.928 29.76 30.368 29.28C29.808 28.8 29.064 28.56 28.136 28.56H24.536V33.768H28.232Z" fill="white"/>
<path d="M70.752 39V17.88H80C82.56 17.88 84.448 18.3813 85.664 19.384C86.88 20.3867 87.488 21.8053 87.488 23.64C87.488 24.7707 87.1467 25.7733 86.464 26.648C85.7813 27.5227 84.7787 28.0773 83.456 28.312V28.344C84.928 28.5573 86.0587 29.112 86.848 30.008C87.6373 30.904 88.032 31.9707 88.032 33.208C88.032 35.0213 87.3707 36.44 86.048 37.464C84.7467 38.488 82.8373 39 80.32 39H70.752ZM75.04 35.672H79.936C81.1307 35.672 82.016 35.4267 82.592 34.936C83.168 34.4453 83.456 33.7627 83.456 32.888C83.456 31.992 83.168 31.3093 82.592 30.84C82.016 30.3707 81.1307 30.136 79.936 30.136H75.04V35.672ZM75.04 26.744H79.424C81.7493 26.744 82.912 25.8373 82.912 24.024C82.912 22.2107 81.7493 21.304 79.424 21.304H75.04V26.744ZM91.804 39V23H95.612L95.9 26.136C96.3267 25.0267 96.9453 24.1733 97.756 23.576C98.588 22.9787 99.6227 22.68 100.86 22.68C101.223 22.68 101.553 22.712 101.852 22.776C102.151 22.84 102.396 22.9253 102.588 23.032L102.076 26.712C101.863 26.6267 101.596 26.5627 101.276 26.52C100.977 26.4773 100.583 26.456 100.092 26.456C99.452 26.456 98.8333 26.616 98.236 26.936C97.6387 27.2347 97.148 27.704 96.764 28.344C96.38 28.9627 96.188 29.752 96.188 30.712V39H91.804ZM112.288 22.68C113.909 22.68 115.328 23.0107 116.544 23.672C117.781 24.3333 118.741 25.2827 119.424 26.52C120.128 27.7573 120.48 29.2507 120.48 31C120.48 32.728 120.128 34.2213 119.424 35.48C118.741 36.7173 117.781 37.6667 116.544 38.328C115.328 38.9893 113.909 39.32 112.288 39.32C110.688 39.32 109.269 38.9893 108.032 38.328C106.794 37.6667 105.824 36.7173 105.12 35.48C104.437 34.2213 104.096 32.728 104.096 31C104.096 29.2507 104.437 27.7573 105.12 26.52C105.824 25.2827 106.794 24.3333 108.032 23.672C109.269 23.0107 110.688 22.68 112.288 22.68ZM112.288 25.944C111.477 25.944 110.784 26.136 110.208 26.52C109.653 26.8827 109.226 27.4373 108.928 28.184C108.629 28.9307 108.48 29.8693 108.48 31C108.48 32.1307 108.629 33.0693 108.928 33.816C109.226 34.5627 109.653 35.128 110.208 35.512C110.784 35.8747 111.477 36.056 112.288 36.056C113.077 36.056 113.749 35.8747 114.304 35.512C114.88 35.128 115.317 34.5627 115.616 33.816C115.914 33.0693 116.064 32.1307 116.064 31C116.064 29.8693 115.914 28.9307 115.616 28.184C115.317 27.4373 114.88 26.8827 114.304 26.52C113.749 26.136 113.077 25.944 112.288 25.944ZM131.444 22.68C133.065 22.68 134.484 23.0107 135.7 23.672C136.937 24.3333 137.897 25.2827 138.58 26.52C139.284 27.7573 139.636 29.2507 139.636 31C139.636 32.728 139.284 34.2213 138.58 35.48C137.897 36.7173 136.937 37.6667 135.7 38.328C134.484 38.9893 133.065 39.32 131.444 39.32C129.844 39.32 128.425 38.9893 127.188 38.328C125.95 37.6667 124.98 36.7173 124.276 35.48C123.593 34.2213 123.252 32.728 123.252 31C123.252 29.2507 123.593 27.7573 124.276 26.52C124.98 25.2827 125.95 24.3333 127.188 23.672C128.425 23.0107 129.844 22.68 131.444 22.68ZM131.444 25.944C130.633 25.944 129.94 26.136 129.364 26.52C128.809 26.8827 128.382 27.4373 128.084 28.184C127.785 28.9307 127.636 29.8693 127.636 31C127.636 32.1307 127.785 33.0693 128.084 33.816C128.382 34.5627 128.809 35.128 129.364 35.512C129.94 35.8747 130.633 36.056 131.444 36.056C132.233 36.056 132.905 35.8747 133.46 35.512C134.036 35.128 134.473 34.5627 134.772 33.816C135.07 33.0693 135.22 32.1307 135.22 31C135.22 29.8693 135.07 28.9307 134.772 28.184C134.473 27.4373 134.036 26.8827 133.46 26.52C132.905 26.136 132.233 25.944 131.444 25.944ZM159.592 23L152.2 30.712L151.336 31.128L146.536 36.28L146.472 31.608L154.6 23H159.592ZM147.688 15.992V39H143.304V15.992H147.688ZM152.808 28.088L159.976 39H155.016L149.8 30.648L152.808 28.088ZM166.874 15.992V34.072C166.874 34.8187 167.002 35.3413 167.258 35.64C167.514 35.9387 167.941 36.088 168.538 36.088C168.901 36.088 169.199 36.0667 169.434 36.024C169.669 35.96 169.967 35.8747 170.33 35.768L169.946 38.648C169.583 38.8613 169.125 39.0213 168.57 39.128C168.037 39.256 167.503 39.32 166.97 39.32C165.413 39.32 164.271 38.9467 163.546 38.2C162.842 37.432 162.49 36.216 162.49 34.552V15.992H166.874ZM187.157 23L180.693 39.992C180.181 41.4427 179.605 42.5947 178.965 43.448C178.346 44.3013 177.621 44.92 176.789 45.304C175.978 45.688 175.007 45.88 173.877 45.88C173.045 45.88 172.277 45.7733 171.573 45.56C170.89 45.368 170.293 45.112 169.78 44.792L170.709 41.624C171.114 41.944 171.541 42.168 171.989 42.296C172.437 42.4453 172.949 42.52 173.525 42.52C174.122 42.52 174.634 42.392 175.061 42.136C175.509 41.88 175.882 41.368 176.181 40.6L176.725 39.224L174.965 35.064L170.069 23H174.933L177.973 32.6L178.805 35.8L179.797 32.408L182.709 23H187.157ZM189.585 39V23H193.521L193.777 27.8L193.233 27.288C193.489 26.2427 193.895 25.3787 194.449 24.696C195.004 24.0133 195.676 23.512 196.465 23.192C197.276 22.8507 198.161 22.68 199.121 22.68C200.231 22.68 201.212 22.8933 202.065 23.32C202.94 23.7467 203.623 24.3973 204.113 25.272C204.625 26.1253 204.881 27.2027 204.881 28.504V39H200.497V29.752C200.497 28.3867 200.231 27.448 199.697 26.936C199.164 26.4027 198.471 26.136 197.617 26.136C197.02 26.136 196.433 26.2853 195.857 26.584C195.303 26.8613 194.844 27.32 194.481 27.96C194.14 28.6 193.969 29.4533 193.969 30.52V39H189.585Z" fill="#132238"/>
</svg>
